<?xml version="1.0" encoding="iso-8859-1"?>
<!-- Generator: Adobe Illustrator 19.0.0, SVG Export Plug-In . SVG Version: 6.00 Build 0)  -->
<svg version="1.1" id="Layer_1" xmlns="http://www.w3.org/2000/svg" xmlns:xlink="http://www.w3.org/1999/xlink" x="0px" y="0px"
	 viewBox="0 0 491.52 491.52" style="enable-background:new 0 0 491.52 491.52;" xml:space="preserve">
<circle style="fill:#2F8960;" cx="245.76" cy="245.76" r="245.76"/>
<path style="opacity:0.1;enable-background:new    ;" d="M373.914,104.95H117.606c-6.963,0-12.646,5.683-12.646,12.646v256.307
	c0,3.943,1.792,7.475,4.608,9.779l0.205,0.154L215.507,489.6c9.921,1.219,20.002,1.92,30.253,1.92
	c135.73,0,245.76-110.03,245.76-245.76c0-10.247-0.701-20.325-1.919-30.243L383.846,109.763
	C381.491,106.844,377.907,104.95,373.914,104.95z"/>
<path style="fill:#64798A;" d="M373.918,104.96H117.602c-6.982,0-12.642,5.66-12.642,12.642v256.315
	c0,6.982,5.66,12.642,12.642,12.642h256.315c6.981,0,12.642-5.66,12.642-12.642V117.602
	C386.56,110.62,380.899,104.96,373.918,104.96z"/>
<g>
	<rect x="125.44" y="157.302" style="fill:#EBF0F3;" width="240.64" height="208.778"/>
	<rect x="125.44" y="123.136" style="fill:#EBF0F3;" width="172.068" height="14.556"/>
</g>
<rect x="125.44" y="358.385" style="fill:#D5D6DB;" width="240.64" height="7.695"/>
<circle style="fill:#FCD462;" cx="313.395" cy="130.401" r="7.276"/>
<circle style="fill:#44C4A1;" cx="336.128" cy="130.401" r="7.276"/>
<circle style="fill:#E56353;" cx="358.81" cy="130.401" r="7.276"/>
<rect x="141.537" y="170.547" style="fill:#27A2DB;" width="33.254" height="13.123"/>
<rect x="196.966" y="170.547" style="fill:#E56353;" width="33.254" height="13.123"/>
<rect x="257.638" y="170.547" style="fill:#44C4A1;" width="71.178" height="13.123"/>
<rect x="141.537" y="281.129" style="fill:#27A2DB;" width="33.254" height="13.123"/>
<rect x="196.966" y="281.129" style="fill:#E56353;" width="33.254" height="13.123"/>
<rect x="257.638" y="281.129" style="fill:#44C4A1;" width="71.178" height="13.123"/>
<rect x="141.537" y="244.265" style="fill:#FCD462;" width="55.429" height="13.123"/>
<rect x="213.883" y="244.265" style="fill:#27A2DB;" width="33.254" height="13.123"/>
<rect x="264.09" y="244.265" style="fill:#D5D6DB;" width="64.758" height="13.123"/>
<g>
	<rect x="141.537" y="207.401" style="fill:#64798A;" width="33.254" height="13.123"/>
	<rect x="196.966" y="207.401" style="fill:#64798A;" width="72.346" height="13.123"/>
</g>
<rect x="289.741" y="207.401" style="fill:#E56353;" width="39.091" height="13.123"/>
<rect x="141.537" y="318.003" style="fill:#44C4A1;" width="33.254" height="13.123"/>
<rect x="196.966" y="318.003" style="fill:#64798A;" width="72.346" height="13.123"/>
<rect x="289.741" y="318.003" style="fill:#E56353;" width="39.091" height="13.123"/>
<rect x="285.538" y="208.459" transform="matrix(-0.7071 -0.7071 0.7071 -0.7071 304.382 679.3103)" style="fill:#44C4A1;" width="14.694" height="136.309"/>
<rect x="295.934" y="218.85" transform="matrix(-0.7071 -0.7071 0.7071 -0.7071 314.7892 704.4013)" style="fill:#3EA69B;" width="14.694" height="136.31"/>
<rect x="306.343" y="229.223" transform="matrix(-0.7071 -0.7071 0.7071 -0.7071 325.224 729.4684)" style="fill:#31978C;" width="14.694" height="136.31"/>
<path style="fill:#64798A;" d="M229.476,365.352l16.988-6.006c-0.787-3.686-2.598-7.199-5.462-10.062
	c-2.864-2.864-6.376-4.675-10.062-5.462l-6.006,16.988C223.935,363.631,226.654,366.35,229.476,365.352z"/>
<path style="fill:#FCD462;" d="M239.499,319.611l-8.56,24.21c2.325,0.497,4.579,1.402,6.646,2.72l12.305-16.539L239.499,319.611z"/>
<path style="fill:#DC8744;" d="M270.673,350.786l-10.392-10.392l-16.539,12.304c1.318,2.067,2.224,4.322,2.72,6.647L270.673,350.786
	z"/>
<path style="fill:#F6C358;" d="M249.89,330.002l-12.305,16.539c1.211,0.772,2.358,1.684,3.416,2.742
	c1.058,1.058,1.97,2.205,2.742,3.416l16.539-12.304L249.89,330.002z"/>
<rect x="327.152" y="237.389" transform="matrix(-0.7071 -0.7071 0.7071 -0.7071 425.6609 658.4258)" style="fill:#FCD462;" width="44.088" height="7.332"/>
<path style="fill:#E56353;" d="M365.827,255.633l-31.175-31.175l20.317-20.317c4.357-4.357,35.532,26.818,31.175,31.175
	L365.827,255.633z"/>
<g>
</g>
<g>
</g>
<g>
</g>
<g>
</g>
<g>
</g>
<g>
</g>
<g>
</g>
<g>
</g>
<g>
</g>
<g>
</g>
<g>
</g>
<g>
</g>
<g>
</g>
<g>
</g>
<g>
</g>
</svg>
