<?xml version="1.0" encoding="iso-8859-1"?>
<!-- Generator: Adobe Illustrator 19.0.0, SVG Export Plug-In . SVG Version: 6.00 Build 0)  -->
<svg version="1.1" id="Layer_1" xmlns="http://www.w3.org/2000/svg" xmlns:xlink="http://www.w3.org/1999/xlink" x="0px" y="0px"
	 viewBox="0 0 512 512" style="enable-background:new 0 0 512 512;" xml:space="preserve">
<circle style="fill:#2F8960;" cx="256" cy="256" r="256"/>
<path style="fill:#206646;" d="M512,256c0-0.876-0.024-1.746-0.033-2.62L393.338,134.751L228.417,289.902l-109.282,87.885
	l134.177,134.177c0.896,0.009,1.788,0.034,2.688,0.034C397.384,512,512,397.384,512,256z"/>
<path style="fill:#FFFFFF;" d="M378.54,384H133.458c-10.869,0-19.68-8.811-19.68-19.682V147.68c0-10.869,8.811-19.68,19.68-19.68
	H378.54c10.869,0,19.682,8.811,19.682,19.68v216.638C398.222,375.189,389.411,384,378.54,384z"/>
<path style="fill:#D0D1D3;" d="M378.54,128H256v256h122.54c10.869,0,19.682-8.811,19.682-19.682V147.682
	C398.222,136.811,389.411,128,378.54,128z"/>
<path style="fill:#EAA22F;" d="M398.222,147.682c0-10.869-8.811-19.682-19.682-19.682H133.46c-10.871,0-19.682,8.811-19.682,19.682
	v20.744h284.444V147.682z"/>
<path style="fill:#E09112;" d="M398.222,147.682c0-10.869-8.811-19.682-19.682-19.682H256v40.426h142.222V147.682z"/>
<path style="fill:#FFC61B;" d="M113.988,367.049c1.333,9.575,9.528,16.951,19.47,16.951H378.54c9.942,0,18.137-7.378,19.47-16.951
	L113.988,367.049L113.988,367.049z"/>
<path style="fill:#EAA22F;" d="M256,367.049V384h122.54c9.942,0,18.137-7.378,19.47-16.951L256,367.049L256,367.049z"/>
<path style="fill:#FFFFFF;" d="M373.226,158.599H138.774c-4.046,0-7.327-3.281-7.327-7.327l0,0c0-4.046,3.281-7.327,7.327-7.327
	h234.451c4.046,0,7.327,3.281,7.327,7.327l0,0C380.552,155.319,377.272,158.599,373.226,158.599z"/>
<path style="fill:#D0D1D3;" d="M373.226,143.946H256v14.653h117.226c4.046,0,7.327-3.281,7.327-7.327
	S377.272,143.946,373.226,143.946z"/>
<path style="fill:#B54324;" d="M209.322,209.513l30.942,30.946c3.217,3.217,3.217,8.43,0.002,11.647l-22.876,22.88
	c-3.215,3.217-8.43,3.217-11.645,0l-30.942-30.946c-5.904,18.473-1.555,39.543,13.078,54.177
	c16.069,16.07,39.891,19.727,59.518,11.024L353.621,415.47c7.49,7.49,19.635,7.49,27.124,0c7.49-7.49,7.489-19.637-0.002-27.127
	L274.52,282.114c8.701-19.63,5.042-43.453-11.026-59.523C248.861,207.956,227.793,203.607,209.322,209.513z M377.722,403.585
	c0,4.889-3.963,8.852-8.852,8.852c-4.889,0-8.852-3.963-8.852-8.852c0-4.889,3.963-8.852,8.852-8.852
	C373.758,394.733,377.722,398.696,377.722,403.585z"/>
<path style="fill:#930000;" d="M368.869,412.438c-4.889,0-8.852-3.963-8.852-8.852c0-2.358,0.938-4.489,2.441-6.075L228.661,263.711
	l-11.269,11.271c-3.215,3.217-8.43,3.217-11.645,0l-30.942-30.946c-5.904,18.473-1.555,39.543,13.078,54.177
	c16.069,16.07,39.891,19.727,59.518,11.024l106.224,106.229c7.435,7.435,19.449,7.482,26.952,0.157l-5.627-5.627
	C373.358,411.501,371.229,412.438,368.869,412.438z"/>
<g>
</g>
<g>
</g>
<g>
</g>
<g>
</g>
<g>
</g>
<g>
</g>
<g>
</g>
<g>
</g>
<g>
</g>
<g>
</g>
<g>
</g>
<g>
</g>
<g>
</g>
<g>
</g>
<g>
</g>
</svg>
