<?xml version="1.0" encoding="iso-8859-1"?>
<!-- Generator: Adobe Illustrator 19.0.0, SVG Export Plug-In . SVG Version: 6.00 Build 0)  -->
<svg version="1.1" id="Layer_1" xmlns="http://www.w3.org/2000/svg" xmlns:xlink="http://www.w3.org/1999/xlink" x="0px" y="0px"
	 viewBox="0 0 512 512" style="enable-background:new 0 0 512 512;" xml:space="preserve">
<circle style="fill:#2F8960;" cx="256" cy="256" r="256"/>
<rect x="112" y="96.08" style="fill:#FFFFFF;" width="288" height="336"/>
<rect x="112" y="432.08" style="fill:#DB2B42;" width="288" height="16"/>
<rect x="112.08" y="64.08" style="fill:#3B3B3B;" width="288" height="32"/>
<g>
	<circle style="fill:#999999;" cx="142" cy="80.08" r="6"/>
	<circle style="fill:#999999;" cx="160" cy="80.08" r="6"/>
	<circle style="fill:#999999;" cx="178" cy="80.08" r="6"/>
</g>
<path style="fill:#FFFFFF;" d="M360,88.04H224c-4.4,0-8-3.6-8-8l0,0c0-4.4,3.6-8,8-8h136c4.4,0,8,3.6,8,8l0,0
	C368,84.44,364.4,88.04,360,88.04z"/>
<g>
	<rect x="272" y="120.08" style="fill:#CCCCCC;" width="104" height="288"/>
	<rect x="136" y="248" style="fill:#CCCCCC;" width="112" height="8"/>
	<rect x="136" y="224" style="fill:#CCCCCC;" width="112" height="8"/>
	<rect x="136" y="200" style="fill:#CCCCCC;" width="112" height="8"/>
	<rect x="136" y="176" style="fill:#CCCCCC;" width="112" height="8"/>
	<rect x="136" y="152" style="fill:#CCCCCC;" width="112" height="8"/>
	<rect x="136" y="128" style="fill:#CCCCCC;" width="112" height="8"/>
	<rect x="136" y="272.08" style="fill:#CCCCCC;" width="112" height="8"/>
	<rect x="136" y="296.08" style="fill:#CCCCCC;" width="112" height="8"/>
	<rect x="136" y="320.08" style="fill:#CCCCCC;" width="112" height="8"/>
	<rect x="136" y="344.08" style="fill:#CCCCCC;" width="112" height="8"/>
	<rect x="136" y="368.08" style="fill:#CCCCCC;" width="112" height="8"/>
	<rect x="136" y="392.08" style="fill:#CCCCCC;" width="112" height="8"/>
</g>
<g>
</g>
<g>
</g>
<g>
</g>
<g>
</g>
<g>
</g>
<g>
</g>
<g>
</g>
<g>
</g>
<g>
</g>
<g>
</g>
<g>
</g>
<g>
</g>
<g>
</g>
<g>
</g>
<g>
</g>
</svg>
