<?xml version="1.0" encoding="iso-8859-1"?>
<!-- Generator: Adobe Illustrator 19.0.0, SVG Export Plug-In . SVG Version: 6.00 Build 0)  -->
<svg version="1.1" id="Layer_1" xmlns="http://www.w3.org/2000/svg" xmlns:xlink="http://www.w3.org/1999/xlink" x="0px" y="0px"
	 viewBox="0 0 512 512" style="enable-background:new 0 0 512 512;" xml:space="preserve">
<circle style="fill:#2F8960;" cx="256" cy="256" r="256"/>
<path style="fill:#206646;" d="M512,256c0-2.4-0.04-4.789-0.105-7.171L409.34,146.273L257.879,334.591l8.447,8.447l-163.95,22.375
	L248.86,511.897c2.374,0.066,4.753,0.103,7.142,0.103C397.384,512,512,397.384,512,256z"/>
<path style="fill:#D0D1D3;" d="M400.305,369.778H111.694c-6.704,0-12.138-5.435-12.138-12.14V154.36
	c0-6.704,5.435-12.138,12.138-12.138h288.611c6.704,0,12.14,5.435,12.14,12.138v203.278
	C412.444,364.342,407.009,369.778,400.305,369.778z"/>
<path style="fill:#A6A8AA;" d="M400.305,142.222H256v227.556h144.305c6.704,0,12.14-5.435,12.14-12.14V154.362
	C412.444,147.658,407.009,142.222,400.305,142.222z"/>
<circle style="fill:#C92F00;" cx="116.364" cy="156.444" r="6.896"/>
<circle style="fill:#EAA22F;" cx="140.067" cy="156.444" r="6.896"/>
<circle style="fill:#386895;" cx="163.771" cy="156.444" r="6.896"/>
<path style="fill:#FFFFFF;" d="M393.051,162.478H184.458c-3.332,0-6.034-2.701-6.034-6.034l0,0c0-3.332,2.701-6.034,6.034-6.034
	h208.593c3.332,0,6.034,2.701,6.034,6.034l0,0C399.084,159.777,396.383,162.478,393.051,162.478z"/>
<path style="fill:#D0D1D3;" d="M393.051,150.411H256v12.067h137.051c3.332,0,6.034-2.701,6.034-6.034
	S396.383,150.411,393.051,150.411z"/>
<rect x="112.916" y="175.838" style="fill:#FFFFFF;" width="286.168" height="181.01"/>
<rect x="256" y="175.838" style="fill:#D0D1D3;" width="143.084" height="181.01"/>
<g>
	<rect x="261.465" y="194.801" style="fill:#A6A8AA;" width="51.447" height="61.621"/>
	<rect x="330.059" y="194.801" style="fill:#A6A8AA;" width="51.447" height="61.621"/>
	<rect x="261.465" y="275.859" style="fill:#A6A8AA;" width="120.036" height="68.455"/>
</g>
<rect x="261.465" y="194.801" style="fill:#FFC61B;" width="51.447" height="12.136"/>
<rect x="124.845" y="194.801" style="fill:#71E2EF;" width="124.121" height="149.514"/>
<rect x="330.059" y="194.801" style="fill:#FF314F;" width="51.447" height="12.136"/>
<path style="fill:#386895;" d="M135.515,331.128c0-28.458,23.071-51.529,51.529-51.529s51.529,23.071,51.529,51.529H135.515z"/>
<circle style="fill:#FFEDB5;" cx="187.044" cy="257.707" r="27.053"/>
<g>
</g>
<g>
</g>
<g>
</g>
<g>
</g>
<g>
</g>
<g>
</g>
<g>
</g>
<g>
</g>
<g>
</g>
<g>
</g>
<g>
</g>
<g>
</g>
<g>
</g>
<g>
</g>
<g>
</g>
</svg>
