<?xml version="1.0" encoding="iso-8859-1"?>
<!-- Generator: Adobe Illustrator 19.0.0, SVG Export Plug-In . SVG Version: 6.00 Build 0)  -->
<svg version="1.1" id="Layer_1" xmlns="http://www.w3.org/2000/svg" xmlns:xlink="http://www.w3.org/1999/xlink" x="0px" y="0px"
	 viewBox="0 0 491.52 491.52" style="enable-background:new 0 0 491.52 491.52;" xml:space="preserve">
<circle style="fill:#2F8960;" cx="245.76" cy="245.76" r="245.76"/>
<path style="opacity:0.1;enable-background:new    ;" d="M491.52,245.76c0-10.267-0.703-20.365-1.926-30.301L383.078,108.943
	c-2.304-2.458-5.53-3.994-9.165-3.994H117.606c-6.963,0-12.646,5.683-12.646,12.646v256.307c0,3.942,1.792,7.475,4.608,9.779
	l0.205,0.154l105.768,105.768c9.91,1.216,19.98,1.916,30.219,1.916C381.49,491.52,491.52,381.489,491.52,245.76z"/>
<path style="fill:#64798A;" d="M373.918,104.96H117.602c-6.982,0-12.642,5.66-12.642,12.642v256.315
	c0,6.982,5.66,12.642,12.642,12.642h256.315c6.981,0,12.642-5.66,12.642-12.642V117.602
	C386.56,110.62,380.899,104.96,373.918,104.96z"/>
<g>
	<rect x="125.44" y="157.302" style="fill:#EBF0F3;" width="240.64" height="208.778"/>
	<rect x="125.44" y="123.136" style="fill:#EBF0F3;" width="172.068" height="14.556"/>
</g>
<rect x="125.44" y="358.385" style="fill:#D5D6DB;" width="240.64" height="7.695"/>
<circle style="fill:#FCD462;" cx="313.395" cy="130.401" r="7.276"/>
<circle style="fill:#44C4A1;" cx="336.128" cy="130.401" r="7.276"/>
<circle style="fill:#E56353;" cx="358.81" cy="130.401" r="7.276"/>
<circle style="fill:#D15241;" cx="207.104" cy="239.826" r="25.185"/>
<path style="fill:#E56353;" d="M275.602,227.056h-8.557c-1.579-7.444-4.527-14.372-8.54-20.548l6.071-6.071
	c1.2-1.201,1.2-3.148,0-4.348l-13.71-13.71c-1.2-1.201-3.148-1.201-4.348,0l-6.071,6.071c-6.175-4.014-13.104-6.961-20.548-8.541
	v-8.557c0-1.698-1.376-3.075-3.074-3.075h-19.389c-1.698,0-3.075,1.376-3.075,3.075v8.557c-7.444,1.58-14.371,4.527-20.548,8.541
	l-6.071-6.071c-1.201-1.201-3.148-1.201-4.349,0l-13.71,13.71c-1.201,1.201-1.201,3.148,0,4.348l6.071,6.071
	c-4.014,6.176-6.961,13.104-8.54,20.548h-8.557c-1.698,0-3.075,1.376-3.075,3.075v19.389c0,1.698,1.377,3.075,3.075,3.075h8.557
	c1.58,7.444,4.526,14.372,8.54,20.548l-6.071,6.071c-1.201,1.201-1.201,3.147,0,4.348l13.71,13.71c1.201,1.201,3.148,1.201,4.349,0
	l6.071-6.071c6.177,4.014,13.104,6.961,20.548,8.54v8.557c0,1.698,1.377,3.075,3.075,3.075h19.389c1.698,0,3.074-1.376,3.074-3.075
	v-8.557c7.444-1.579,14.373-4.527,20.548-8.54l6.071,6.071c1.2,1.201,3.148,1.201,4.348,0l13.71-13.71c1.2-1.201,1.2-3.148,0-4.348
	l-6.071-6.071c4.013-6.176,6.961-13.104,8.54-20.548h8.557c1.698,0,3.074-1.377,3.074-3.075v-19.389
	C278.677,228.432,277.3,227.056,275.602,227.056z M207.129,289.461c-27.413,0-49.636-22.223-49.636-49.636
	s22.223-49.636,49.636-49.636c27.414,0,49.637,22.223,49.637,49.636C256.766,267.238,234.543,289.461,207.129,289.461z"/>
<path style="fill:#D15241;" d="M207.129,190.189c-27.413,0-49.636,22.223-49.636,49.636c0,27.413,22.223,49.636,49.636,49.636
	c27.414,0,49.637-22.223,49.637-49.636S234.543,190.189,207.129,190.189z M207.129,283.417c-24.075,0-43.592-19.517-43.592-43.592
	s19.516-43.592,43.592-43.592s43.593,19.517,43.593,43.592S231.204,283.417,207.129,283.417z"/>
<rect x="296.771" y="199.483" transform="matrix(-0.7071 -0.7071 0.7071 -0.7071 333.8788 658.442)" style="fill:#44C4A1;" width="13.066" height="121.181"/>
<rect x="305.982" y="208.718" transform="matrix(-0.7071 -0.7071 0.7071 -0.7071 343.0642 680.7188)" style="fill:#3EA69B;" width="13.066" height="121.18"/>
<rect x="315.237" y="217.966" transform="matrix(-0.7071 -0.7071 0.7071 -0.7071 352.3243 703.0515)" style="fill:#31978C;" width="13.066" height="121.18"/>
<path style="fill:#64798A;" d="M246.91,338.961l15.102-5.34c-0.7-3.277-2.31-6.4-4.856-8.946c-2.546-2.546-5.668-4.156-8.946-4.856
	l-5.34,15.102C241.984,337.431,244.401,339.848,246.91,338.961z"/>
<path style="fill:#FCD462;" d="M255.82,298.297l-7.61,21.523c2.067,0.441,4.071,1.246,5.909,2.418l10.939-14.703L255.82,298.297z"/>
<path style="fill:#DC8744;" d="M283.535,326.011l-9.238-9.238l-14.703,10.939c1.172,1.838,1.977,3.843,2.418,5.909L283.535,326.011z
	"/>
<path style="fill:#F6C358;" d="M265.059,307.535l-10.939,14.703c1.076,0.687,2.096,1.497,3.037,2.438
	c0.94,0.941,1.751,1.96,2.438,3.037l14.703-10.939L265.059,307.535z"/>
<rect x="333.768" y="225.23" transform="matrix(-0.7071 -0.7071 0.7071 -0.7071 441.6648 639.9224)" style="fill:#FCD462;" width="39.194" height="6.518"/>
<path style="fill:#E56353;" d="M368.128,241.42l-27.715-27.715l18.062-18.062c3.874-3.874,31.588,23.841,27.715,27.715
	L368.128,241.42z"/>
<g>
</g>
<g>
</g>
<g>
</g>
<g>
</g>
<g>
</g>
<g>
</g>
<g>
</g>
<g>
</g>
<g>
</g>
<g>
</g>
<g>
</g>
<g>
</g>
<g>
</g>
<g>
</g>
<g>
</g>
</svg>
