<?xml version="1.0" encoding="iso-8859-1"?>
<!-- Generator: Adobe Illustrator 19.0.0, SVG Export Plug-In . SVG Version: 6.00 Build 0)  -->
<svg version="1.1" id="Layer_1" xmlns="http://www.w3.org/2000/svg" xmlns:xlink="http://www.w3.org/1999/xlink" x="0px" y="0px"
	 viewBox="0 0 512 512" style="enable-background:new 0 0 512 512;" xml:space="preserve">
<circle style="fill:#2F8960;" cx="256" cy="256" r="256"/>
<rect x="165.28" y="456.128" style="fill:#CCCCCC;" width="176" height="8"/>
<polygon style="fill:#ADADAD;" points="309.28,456.128 197.28,456.128 205.28,400.128 301.28,400.128 "/>
<path style="fill:#CCCCCC;" d="M445.28,360.128v32c0,4.4-3.6,8-8,8h-368c-4.4,0-8-3.6-8-8v-32H445.28z"/>
<rect id="SVGCleanerId_0" x="77.28" y="120.128" style="fill:#FFFFFF;" width="352" height="224"/>
<path style="fill:#3B3B3B;" d="M437.28,104.128h-368c-4.4,0-8,3.6-8,8v248h384v-248C445.28,107.728,441.68,104.128,437.28,104.128z
	 M429.28,344.128h-352v-224h352V344.128z"/>
<g>
	<rect id="SVGCleanerId_0_1_" x="77.28" y="120.128" style="fill:#FFFFFF;" width="352" height="224"/>
</g>
<g>
	<rect x="133.28" y="216.128" style="fill:#CCCCCC;" width="240" height="8"/>
	<rect x="133.28" y="240.128" style="fill:#CCCCCC;" width="240" height="8"/>
	<rect x="133.28" y="264.128" style="fill:#CCCCCC;" width="240" height="8"/>
	<rect x="133.28" y="288.128" style="fill:#CCCCCC;" width="240" height="8"/>
	<rect x="133.28" y="312.128" style="fill:#CCCCCC;" width="240" height="8"/>
	<rect x="309.28" y="144.128" style="fill:#FF6600;" width="64" height="56"/>
	<rect x="133.28" y="144.128" style="fill:#FF6600;" width="64" height="56"/>
	<rect x="221.28" y="144.128" style="fill:#FF6600;" width="64" height="56"/>
</g>
<g>
</g>
<g>
</g>
<g>
</g>
<g>
</g>
<g>
</g>
<g>
</g>
<g>
</g>
<g>
</g>
<g>
</g>
<g>
</g>
<g>
</g>
<g>
</g>
<g>
</g>
<g>
</g>
<g>
</g>
</svg>
